<svg width="133" height="53" viewBox="0 0 133 53" fill="none" xmlns="http://www.w3.org/2000/svg">
<path d="M0 47.7536H1.26645V51.6382H1.97745V47.7536H3.2439V47.0615H0V47.7536Z" fill="#00224B"></path>
<path d="M9.37624 48.7582C9.28736 48.6466 9.15405 48.5573 8.99852 48.4903C8.84299 48.4234 8.66524 48.401 8.46528 48.401C8.24309 48.401 8.06535 48.4457 7.8876 48.5573C7.70985 48.6466 7.57654 48.7806 7.48766 48.9368H7.44323L7.48766 48.4234V47.0615H6.77667V51.6159H7.48766V50.0084C7.48766 49.8745 7.50988 49.7629 7.5321 49.6512C7.57654 49.5396 7.62097 49.428 7.68763 49.3387C7.75429 49.2494 7.84316 49.1824 7.93203 49.1154C8.02091 49.0708 8.132 49.0261 8.26531 49.0261C8.46528 49.0261 8.62081 49.0931 8.7319 49.2047C8.86521 49.3164 8.90965 49.495 8.90965 49.7629V51.5935H9.62064V49.6736C9.62064 49.4726 9.59842 49.3164 9.55398 49.1378C9.55398 49.0261 9.48733 48.8699 9.37624 48.7582Z" fill="#00224B"></path>
<path d="M15.9305 48.8684C15.7972 48.7344 15.6416 48.6005 15.4639 48.5335C15.2639 48.4442 15.064 48.4219 14.8195 48.4219C14.5751 48.4219 14.3752 48.4665 14.1752 48.5558C13.9752 48.6451 13.8197 48.7568 13.6864 48.913C13.5531 49.0693 13.442 49.2479 13.3753 49.4488C13.2865 49.6498 13.2643 49.873 13.2643 50.0963C13.2643 50.3418 13.3087 50.5651 13.3976 50.766C13.4864 50.9669 13.5975 51.1456 13.7308 51.3018C13.8642 51.4581 14.0419 51.5697 14.2419 51.6367C14.4418 51.726 14.6418 51.7707 14.8862 51.7707C15.2417 51.7707 15.5305 51.6814 15.7749 51.5251C16.0194 51.3688 16.1971 51.1679 16.3304 50.9223L15.7305 50.6321C15.6416 50.766 15.5305 50.9 15.3972 50.9893C15.2639 51.0786 15.1084 51.1456 14.8862 51.1456C14.7751 51.1456 14.6862 51.1232 14.5751 51.1009C14.4641 51.0562 14.3752 51.0116 14.2863 50.9446C14.1974 50.8776 14.1308 50.7883 14.0641 50.6767C13.9975 50.5651 13.9752 50.4311 13.953 50.2972H16.3526C16.3526 50.2749 16.3526 50.2749 16.3526 50.2525C16.3526 50.2302 16.3526 50.2079 16.3526 50.1856V50.1409C16.3526 49.8953 16.3082 49.6721 16.2415 49.4712C16.1749 49.1809 16.0638 49.0023 15.9305 48.8684ZM13.9752 49.6721C14.0197 49.4712 14.1308 49.3149 14.2641 49.1809C14.4196 49.0693 14.5751 49.0023 14.7973 49.0023C14.9529 49.0023 15.064 49.0247 15.175 49.0693C15.2861 49.114 15.3528 49.1809 15.4195 49.2479C15.4861 49.3149 15.5305 49.3819 15.575 49.4712C15.5972 49.5381 15.6194 49.6274 15.6416 49.6721H13.9752Z" fill="#00224B"></path>
<path d="M26.8178 49.4711C26.7067 49.3595 26.5733 49.2702 26.44 49.1809C26.2845 49.0916 26.129 49.0246 25.9512 48.98L25.6624 48.8683C25.3958 48.779 25.218 48.6897 25.0847 48.5781C24.9514 48.4888 24.8847 48.3549 24.8847 48.1763C24.8847 48.087 24.907 48.02 24.9514 47.953C24.9958 47.886 25.0403 47.8191 25.1069 47.7744C25.1736 47.7298 25.2402 47.6851 25.3291 47.6628C25.418 47.6405 25.5069 47.6181 25.618 47.6181C25.729 47.6181 25.8401 47.6405 25.929 47.6628C26.0179 47.7074 26.0845 47.7298 26.1512 47.7967C26.2179 47.8637 26.2623 47.9084 26.3067 47.9753C26.3512 48.0423 26.3734 48.1093 26.3956 48.1763L27.0399 47.9084C26.9955 47.8191 26.9511 47.7074 26.8844 47.5958C26.8178 47.4842 26.7289 47.3726 26.6178 47.2833C26.5067 47.194 26.3734 47.1047 26.1956 47.06C26.0179 46.993 25.8401 46.9707 25.618 46.9707C25.3958 46.9707 25.218 46.993 25.0403 47.06C24.8625 47.127 24.707 47.2163 24.5959 47.3279C24.4626 47.4395 24.3737 47.5735 24.3071 47.7298C24.2404 47.886 24.196 48.0423 24.196 48.2209C24.196 48.3995 24.2182 48.5558 24.2848 48.6897C24.3515 48.8237 24.4404 48.9353 24.5292 49.0469C24.6403 49.1362 24.7514 49.2255 24.8847 49.2925C25.0181 49.3595 25.1291 49.4265 25.2625 49.4711L25.5513 49.5828C25.7068 49.6497 25.8624 49.6944 25.9734 49.7614C26.0845 49.8283 26.1956 49.873 26.2623 49.94C26.3289 50.0069 26.3956 50.0739 26.4178 50.1409C26.4623 50.2079 26.4623 50.2972 26.4623 50.3865C26.4623 50.4981 26.44 50.5874 26.3956 50.6767C26.3512 50.766 26.2845 50.833 26.2179 50.8776C26.1512 50.9223 26.0623 50.9669 25.9734 51.0116C25.8846 51.0339 25.7735 51.0562 25.6624 51.0562C25.5291 51.0562 25.418 51.0339 25.3069 50.9892C25.1958 50.9446 25.1069 50.8776 25.0181 50.8106C24.9292 50.7437 24.8625 50.6544 24.8181 50.5427C24.7514 50.4311 24.707 50.3195 24.6848 50.2079L23.996 50.4981C24.0627 50.699 24.1293 50.8999 24.2404 51.0562C24.3515 51.2125 24.4848 51.3464 24.6181 51.4581C24.7737 51.5697 24.9292 51.6367 25.0847 51.7036C25.2625 51.7483 25.4402 51.7929 25.618 51.7929C25.7957 51.7929 25.9734 51.7706 26.1512 51.726C26.3289 51.6813 26.5067 51.592 26.64 51.4804C26.7955 51.3688 26.9066 51.2348 26.9955 51.0562C27.0844 50.8776 27.1288 50.6767 27.1288 50.4534C27.1288 50.2525 27.1066 50.0962 27.0399 49.94C27.0177 49.7167 26.9288 49.5828 26.8178 49.4711Z" fill="#00224B"></path>
<path d="M32.7505 50.9446C32.6172 51.0339 32.4395 51.0786 32.2617 51.0786C32.1506 51.0786 32.0395 51.0562 31.9284 51.0116C31.8173 50.9669 31.7285 50.9 31.6396 50.8107C31.5507 50.7214 31.4841 50.6097 31.4396 50.4981C31.3952 50.3642 31.373 50.2302 31.373 50.0739C31.373 49.9177 31.3952 49.7837 31.4396 49.6498C31.4841 49.5158 31.5507 49.4265 31.6396 49.3372C31.7285 49.2479 31.8173 49.1809 31.9284 49.1363C32.0395 49.0916 32.1506 49.0693 32.2617 49.0693C32.4617 49.0693 32.6172 49.114 32.7505 49.2033C32.8838 49.2926 32.9727 49.4265 33.0394 49.5828L33.6837 49.3149C33.6393 49.2033 33.5726 49.0916 33.4837 48.98C33.3949 48.8684 33.306 48.7791 33.1727 48.6898C33.0616 48.6005 32.9283 48.5335 32.7727 48.4889C32.6172 48.4442 32.4617 48.4219 32.2839 48.4219C32.0395 48.4219 31.8396 48.4665 31.6396 48.5558C31.4396 48.6451 31.2619 48.7568 31.1286 48.913C30.9953 49.0693 30.862 49.2479 30.7953 49.4488C30.7064 49.6498 30.6842 49.873 30.6842 50.1186C30.6842 50.3642 30.7286 50.5874 30.7953 50.7883C30.8842 50.9893 30.9953 51.1679 31.1286 51.3241C31.2619 51.4804 31.4396 51.5921 31.6396 51.6814C31.8396 51.7707 32.0618 51.8153 32.2839 51.8153C32.4617 51.8153 32.6394 51.793 32.795 51.7483C32.9505 51.7037 33.0838 51.6367 33.1949 51.5474C33.306 51.4581 33.4171 51.3688 33.506 51.2572C33.5948 51.1455 33.6615 51.0339 33.7281 50.9L33.0838 50.6321C32.9949 50.7214 32.8838 50.8553 32.7505 50.9446Z" fill="#00224B"></path>
<path d="M37.6825 47.0166C37.5492 47.0166 37.4381 47.0612 37.3492 47.1506C37.2604 47.2399 37.2159 47.3515 37.2159 47.4854C37.2159 47.6194 37.2604 47.731 37.3492 47.8203C37.4381 47.9096 37.5492 47.9543 37.6825 47.9543C37.8158 47.9543 37.9269 47.9096 38.0158 47.8203C38.1047 47.731 38.1491 47.6194 38.1491 47.4854C38.1491 47.3515 38.1047 47.2399 38.0158 47.1506C37.9269 47.0612 37.8158 47.0166 37.6825 47.0166Z" fill="#00224B"></path>
<path d="M38.0381 48.5127H37.3271V51.6382H38.0381V48.5127Z" fill="#00224B"></path>
<path d="M44.3256 48.8684C44.1922 48.7344 44.0367 48.6005 43.8368 48.5335C43.659 48.4442 43.4368 48.4219 43.1924 48.4219C42.948 48.4219 42.748 48.4665 42.5481 48.5558C42.3481 48.6451 42.1926 48.7568 42.0593 48.913C41.926 49.0693 41.8149 49.2479 41.7482 49.4488C41.6816 49.6498 41.6371 49.873 41.6371 50.0963C41.6371 50.3418 41.6816 50.5651 41.7482 50.766C41.8371 50.9669 41.9482 51.1456 42.0815 51.3018C42.237 51.4581 42.3925 51.5697 42.5925 51.6367C42.7925 51.726 43.0147 51.7707 43.2369 51.7707C43.5923 51.7707 43.8812 51.6814 44.1256 51.5251C44.37 51.3688 44.5477 51.1679 44.6811 50.9223L44.0812 50.6321C43.9923 50.766 43.8812 50.9 43.7479 50.9893C43.6146 51.0786 43.459 51.1456 43.2591 51.1456C43.148 51.1456 43.0591 51.1232 42.948 51.1009C42.8369 51.0562 42.748 51.0116 42.6592 50.9446C42.5703 50.8776 42.5036 50.7883 42.437 50.6767C42.3703 50.5651 42.3481 50.4311 42.3259 50.2972H44.7255C44.7255 50.2749 44.7255 50.2749 44.7255 50.2525C44.7255 50.2302 44.7255 50.2079 44.7255 50.1856V50.1409C44.7255 49.8953 44.6811 49.6721 44.6144 49.4712C44.57 49.1809 44.4589 49.0023 44.3256 48.8684ZM42.3925 49.6721C42.437 49.4712 42.5481 49.3149 42.6814 49.1809C42.8369 49.0693 42.9924 49.0023 43.1924 49.0023C43.3479 49.0023 43.459 49.0247 43.5701 49.0693C43.6812 49.114 43.7479 49.1809 43.8145 49.2479C43.8812 49.3149 43.9256 49.3819 43.9701 49.4712C43.9923 49.5381 44.0145 49.6274 44.0367 49.6721H42.3925Z" fill="#00224B"></path>
<path d="M50.0139 48.4014C49.7917 48.4014 49.614 48.446 49.4362 48.5576C49.2585 48.6469 49.1252 48.7809 49.0363 48.9372H48.9919V48.513H48.3253V51.6385H49.0363V50.0088C49.0363 49.8748 49.0585 49.7632 49.0807 49.6516C49.1252 49.5399 49.1696 49.4283 49.2363 49.3614C49.3029 49.2721 49.3918 49.2051 49.4807 49.1604C49.5696 49.1158 49.6806 49.0934 49.814 49.0934C50.0139 49.0934 50.1695 49.1381 50.3028 49.2497C50.4361 49.3614 50.4805 49.54 50.4805 49.8302V51.6608H51.1915V49.7409C51.1915 49.3614 51.1026 49.0265 50.9027 48.8032C50.7027 48.5353 50.4139 48.4014 50.0139 48.4014Z" fill="#00224B"></path>
<path d="M56.835 50.9446C56.7017 51.0339 56.524 51.0786 56.3462 51.0786C56.2351 51.0786 56.124 51.0562 56.0129 51.0116C55.9019 50.9669 55.813 50.9 55.7241 50.8107C55.6352 50.7214 55.5686 50.6097 55.5241 50.4981C55.4797 50.3642 55.4575 50.2302 55.4575 50.0739C55.4575 49.9177 55.4797 49.7837 55.5241 49.6498C55.5686 49.5158 55.6352 49.4265 55.7241 49.3372C55.813 49.2479 55.9019 49.1809 56.0129 49.1363C56.124 49.0916 56.2351 49.0693 56.3462 49.0693C56.5462 49.0693 56.7017 49.114 56.835 49.2033C56.9683 49.2926 57.0572 49.4265 57.1239 49.5828L57.7682 49.3149C57.7238 49.2033 57.6571 49.0916 57.5682 48.98C57.4794 48.8684 57.3905 48.7791 57.2572 48.6898C57.1461 48.6005 57.0128 48.5335 56.8572 48.4889C56.7017 48.4442 56.5462 48.4219 56.3684 48.4219C56.124 48.4219 55.9241 48.4665 55.7241 48.5558C55.5241 48.6451 55.3464 48.7568 55.2131 48.913C55.0798 49.0693 54.9465 49.2479 54.8798 49.4488C54.7909 49.6498 54.7687 49.873 54.7687 50.1186C54.7687 50.3642 54.8131 50.5874 54.8798 50.7883C54.9687 50.9893 55.0798 51.1679 55.2131 51.3241C55.3464 51.4804 55.5241 51.5921 55.7241 51.6814C55.9241 51.7707 56.1463 51.8153 56.3684 51.8153C56.5462 51.8153 56.7239 51.793 56.8795 51.7483C57.035 51.7037 57.1683 51.6367 57.2794 51.5474C57.3905 51.4581 57.5016 51.3688 57.5905 51.2572C57.6793 51.1455 57.746 51.0339 57.8126 50.9L57.1683 50.6321C57.0794 50.7214 56.9906 50.8553 56.835 50.9446Z" fill="#00224B"></path>
<path d="M63.8562 48.8684C63.7229 48.7344 63.5674 48.6005 63.3674 48.5335C63.1897 48.4442 62.9675 48.4219 62.7231 48.4219C62.4787 48.4219 62.2787 48.4665 62.0787 48.5558C61.8788 48.6451 61.7233 48.7568 61.5899 48.913C61.4566 49.0693 61.3455 49.2479 61.2789 49.4488C61.2122 49.6498 61.1678 49.873 61.1678 50.0963C61.1678 50.3418 61.2122 50.5651 61.3011 50.766C61.39 50.9669 61.5011 51.1456 61.6344 51.3018C61.7677 51.4581 61.9454 51.5697 62.1454 51.6367C62.3454 51.726 62.5453 51.7707 62.7897 51.7707C63.1452 51.7707 63.4341 51.6814 63.6785 51.5251C63.9229 51.3688 64.1006 51.1679 64.2339 50.9223L63.634 50.6321C63.5452 50.766 63.4341 50.9 63.323 50.9893C63.1897 51.0786 63.0341 51.1456 62.812 51.1456C62.7231 51.1456 62.612 51.1232 62.5009 51.1009C62.3898 51.0562 62.3009 51.0116 62.2121 50.9446C62.1232 50.8776 62.0565 50.7883 61.9899 50.6767C61.9232 50.5651 61.901 50.4311 61.8788 50.2972H64.2784C64.2784 50.2749 64.2784 50.2749 64.2784 50.2525C64.2784 50.2302 64.2784 50.2079 64.2784 50.1856V50.1409C64.2784 49.8953 64.2339 49.6721 64.1673 49.4712C64.0784 49.1809 63.9895 49.0023 63.8562 48.8684ZM61.901 49.6721C61.9454 49.4712 62.0565 49.3149 62.1898 49.1809C62.3454 49.0693 62.5009 49.0023 62.7231 49.0023C62.8786 49.0023 62.9897 49.0247 63.1008 49.0693C63.2119 49.114 63.3008 49.1809 63.3674 49.2479C63.4341 49.3149 63.4785 49.3819 63.5229 49.4712C63.5452 49.5381 63.5674 49.6274 63.5896 49.6721H61.901Z" fill="#00224B"></path>
<path d="M74.9209 48.8702C74.7876 48.7139 74.6099 48.6023 74.4099 48.5353C74.2099 48.446 73.9878 48.4014 73.7656 48.4014C73.5212 48.4014 73.3212 48.446 73.1212 48.5353C72.9213 48.6246 72.7435 48.7362 72.6102 48.8702C72.4769 49.0265 72.3658 49.2051 72.2769 49.406C72.1881 49.6069 72.1658 49.8302 72.1658 50.0758C72.1658 50.3213 72.2103 50.5446 72.2769 50.7455C72.3658 50.9464 72.4769 51.125 72.6102 51.2813C72.7657 51.4376 72.9213 51.5492 73.1212 51.6162C73.3212 51.7055 73.5434 51.7501 73.7656 51.7501C74.01 51.7501 74.2099 51.7055 74.4099 51.6162C74.6099 51.5269 74.7876 51.4153 74.9209 51.2813C75.0765 51.125 75.1876 50.9464 75.2542 50.7455C75.3431 50.5446 75.3653 50.3213 75.3653 50.0758C75.3653 49.8302 75.3209 49.6069 75.2542 49.406C75.1653 49.2051 75.0543 49.0265 74.9209 48.8702ZM74.5877 50.4999C74.5432 50.6339 74.4766 50.7232 74.3877 50.8125C74.2988 50.9018 74.2099 50.9688 74.0989 51.0134C73.9878 51.0581 73.8767 51.0804 73.7656 51.0804C73.6545 51.0804 73.5434 51.0581 73.4323 51.0134C73.3212 50.9688 73.2323 50.9018 73.1435 50.8125C73.0546 50.7232 72.9879 50.6116 72.9435 50.4999C72.899 50.366 72.8768 50.232 72.8768 50.0758C72.8768 49.9195 72.899 49.7855 72.9435 49.6516C72.9879 49.5176 73.0546 49.4283 73.1435 49.339C73.2323 49.2497 73.3212 49.1827 73.4323 49.1381C73.5434 49.0934 73.6545 49.0711 73.7656 49.0711C73.8767 49.0711 73.9878 49.0934 74.0989 49.1381C74.2099 49.1827 74.2988 49.2497 74.3877 49.339C74.4766 49.4283 74.5432 49.5399 74.5877 49.6516C74.6321 49.7632 74.6543 49.9195 74.6543 50.0758C74.6765 50.232 74.6543 50.366 74.5877 50.4999Z" fill="#00224B"></path>
<path d="M80.0753 47.8203C80.1642 47.731 80.2752 47.6864 80.3863 47.6864C80.453 47.6864 80.5197 47.6864 80.5863 47.7087C80.6307 47.731 80.6752 47.731 80.7418 47.7533L80.9418 47.1282C80.8751 47.0836 80.7863 47.0612 80.6974 47.0389C80.6085 47.0166 80.4974 47.0166 80.3863 47.0166C80.2308 47.0166 80.0753 47.0389 79.942 47.0836C79.8087 47.1282 79.6754 47.2175 79.5865 47.3068C79.4976 47.3961 79.4087 47.5301 79.3643 47.664C79.3199 47.798 79.2754 47.9543 79.2754 48.1329V48.5124H78.6978V49.1375H79.2754V51.6379H79.9864V49.1375H80.7863V48.5124H79.9864V48.1775C79.942 48.0212 79.9864 47.9096 80.0753 47.8203Z" fill="#00224B"></path>
<path d="M91.1623 49.6512H91.1179L89.6293 47.0615H88.9183V51.6382H89.6293V49.1601L89.5848 48.3787H89.6293L90.9179 50.6559H91.3401L92.6288 48.3787H92.6732L92.6288 49.1601V51.6382H93.3398V47.0615H92.6288L91.1623 49.6512Z" fill="#00224B"></path>
<path d="M99.8274 48.8702C99.6718 48.7139 99.5163 48.6023 99.3163 48.5353C99.1164 48.446 98.8942 48.4014 98.672 48.4014C98.4276 48.4014 98.2276 48.446 98.0277 48.5353C97.8277 48.6246 97.6499 48.7362 97.5166 48.8702C97.3833 49.0265 97.25 49.2051 97.1834 49.406C97.0945 49.6069 97.0723 49.8302 97.0723 50.0758C97.0723 50.3213 97.1167 50.5446 97.1834 50.7455C97.2722 50.9464 97.3833 51.125 97.5166 51.2813C97.6499 51.4376 97.8277 51.5492 98.0277 51.6162C98.2276 51.7055 98.4498 51.7501 98.672 51.7501C98.9164 51.7501 99.1164 51.7055 99.3163 51.6162C99.5163 51.5269 99.694 51.4153 99.8274 51.2813C99.9607 51.125 100.072 50.9464 100.161 50.7455C100.25 50.5446 100.272 50.3213 100.272 50.0758C100.272 49.8302 100.227 49.6069 100.161 49.406C100.094 49.2051 99.9607 49.0265 99.8274 48.8702ZM99.4941 50.4999C99.4496 50.6339 99.383 50.7232 99.2941 50.8125C99.2052 50.9018 99.1164 50.9688 99.0053 51.0134C98.8942 51.0581 98.7831 51.0804 98.672 51.0804C98.5609 51.0804 98.4276 51.0581 98.3387 51.0134C98.2498 50.9688 98.1388 50.9018 98.0499 50.8125C97.961 50.7232 97.8944 50.6116 97.8499 50.4999C97.8055 50.366 97.7833 50.232 97.7833 50.0758C97.7833 49.9195 97.8055 49.7855 97.8499 49.6516C97.8944 49.5176 97.961 49.4283 98.0499 49.339C98.1388 49.2497 98.2276 49.1827 98.3387 49.1381C98.4498 49.0934 98.5609 49.0711 98.672 49.0711C98.7831 49.0711 98.9164 49.0934 99.0053 49.1381C99.1164 49.1827 99.2052 49.2497 99.2941 49.339C99.383 49.4283 99.4496 49.5399 99.4941 49.6516C99.5385 49.7855 99.5607 49.9195 99.5607 50.0758C99.583 50.232 99.5607 50.366 99.4941 50.4999Z" fill="#00224B"></path>
<path d="M106.604 48.868C106.471 48.7118 106.315 48.6001 106.137 48.5332C105.96 48.4439 105.76 48.3992 105.56 48.3992C105.315 48.3992 105.115 48.4439 104.938 48.5555C104.76 48.6448 104.627 48.7787 104.56 48.9127H104.515L104.56 48.4885V47.082H103.849V51.6364H104.515V51.2345H104.56C104.649 51.3685 104.782 51.4801 104.938 51.5917C105.115 51.681 105.315 51.748 105.56 51.748C105.76 51.748 105.937 51.7033 106.137 51.614C106.315 51.5247 106.471 51.4131 106.604 51.2792C106.737 51.1229 106.848 50.9443 106.937 50.7434C107.026 50.5424 107.048 50.3192 107.048 50.0736C107.048 49.828 107.004 49.6048 106.937 49.4039C106.848 49.2029 106.737 49.0243 106.604 48.868ZM106.249 50.4978C106.204 50.6317 106.137 50.721 106.049 50.8103C105.96 50.8996 105.871 50.9666 105.76 51.0113C105.649 51.0559 105.538 51.0782 105.404 51.0782C105.293 51.0782 105.16 51.0559 105.049 51.0113C104.938 50.9666 104.849 50.8996 104.76 50.8103C104.671 50.721 104.604 50.6094 104.56 50.4978C104.515 50.3638 104.493 50.2299 104.493 50.0736C104.493 49.9173 104.515 49.7834 104.56 49.6494C104.604 49.5155 104.671 49.4262 104.76 49.3369C104.849 49.2476 104.938 49.1806 105.049 49.136C105.16 49.0913 105.271 49.069 105.404 49.069C105.515 49.069 105.649 49.0913 105.76 49.136C105.871 49.1806 105.96 49.2476 106.049 49.3369C106.137 49.4262 106.204 49.5378 106.249 49.6494C106.293 49.7611 106.337 49.9173 106.337 50.0736C106.337 50.2299 106.315 50.3638 106.249 50.4978Z" fill="#00224B"></path>
<path d="M111.359 48.5127H110.648V51.6382H111.359V48.5127Z" fill="#00224B"></path>
<path d="M111.004 47.0166C110.87 47.0166 110.759 47.0612 110.67 47.1506C110.582 47.2399 110.537 47.3515 110.537 47.4854C110.537 47.6194 110.582 47.731 110.67 47.8203C110.759 47.9096 110.87 47.9543 111.004 47.9543C111.137 47.9543 111.248 47.9096 111.337 47.8203C111.426 47.731 111.47 47.6194 111.47 47.4854C111.47 47.3515 111.426 47.2399 111.337 47.1506C111.248 47.0612 111.137 47.0166 111.004 47.0166Z" fill="#00224B"></path>
<path d="M115.891 47.0615H115.18V51.6159H115.891V47.0615Z" fill="#00224B"></path>
<path d="M120.046 47.0166C119.913 47.0166 119.802 47.0612 119.713 47.1506C119.624 47.2399 119.58 47.3515 119.58 47.4854C119.58 47.6194 119.624 47.731 119.713 47.8203C119.802 47.9096 119.913 47.9543 120.046 47.9543C120.18 47.9543 120.291 47.9096 120.38 47.8203C120.469 47.731 120.513 47.6194 120.513 47.4854C120.513 47.3515 120.469 47.2399 120.38 47.1506C120.291 47.0612 120.18 47.0166 120.046 47.0166Z" fill="#00224B"></path>
<path d="M120.402 48.5127H119.691V51.6382H120.402V48.5127Z" fill="#00224B"></path>
<path d="M125.779 51.0325C125.735 51.0325 125.69 51.0549 125.623 51.0549C125.512 51.0549 125.424 51.0102 125.357 50.9209C125.312 50.8763 125.29 50.8316 125.29 50.7646C125.268 50.6977 125.268 50.6307 125.268 50.5414V49.1126H126.046V48.4875H125.268V47.5498H124.557V48.5098H123.979V49.1349H124.535V50.6977C124.535 51.0102 124.624 51.2781 124.801 51.4567C124.89 51.546 124.979 51.613 125.09 51.6576C125.201 51.7023 125.335 51.7246 125.49 51.7246C125.623 51.7246 125.712 51.7246 125.823 51.7023C125.912 51.68 126.023 51.6576 126.112 51.613L125.89 50.9879C125.846 51.0102 125.801 51.0325 125.779 51.0325Z" fill="#00224B"></path>
<path d="M131.845 48.5127L131.022 50.5889H130.978L130.134 48.5127H129.356L130.645 51.4596L129.934 53.0001H130.689L132.622 48.5127H131.845Z" fill="#00224B"></path>
<path d="M50.4367 30.6729C50.4143 30.7175 50.4143 30.7845 50.3918 30.8291C50.4143 30.7622 50.4143 30.7175 50.4367 30.6729Z" fill="#FF805D"></path>
<path d="M50.4367 30.6729C50.4143 30.7175 50.4143 30.7845 50.3918 30.8291C50.4143 30.7622 50.4143 30.7175 50.4367 30.6729Z" fill="#FF805D"></path>
<path d="M132.466 24.5116C128.645 16.854 122.579 10.3127 115.136 5.98166C111.381 3.79379 107.271 2.16405 103.027 1.15942C98.761 0.154786 94.3617 -0.202417 89.9847 0.0878109C85.6076 0.378038 81.2528 1.3157 77.1424 2.87846C73.032 4.44122 69.1215 6.62909 65.6332 9.33044C62.1227 12.0541 59.0121 15.2913 56.4347 18.9303C54.8794 21.1181 53.5019 23.4623 52.3465 25.9181C52.3243 25.9627 52.3021 26.0074 52.2799 26.052C52.2132 26.186 52.1466 26.3199 52.1021 26.4539C52.0577 26.5878 51.991 26.7218 51.9244 26.8557C51.3911 28.0613 50.9023 29.2892 50.4802 30.5394C50.458 30.584 50.4357 30.651 50.4357 30.6956C50.4135 30.7403 50.4135 30.8073 50.3913 30.8519L47.7695 38.7774L47.7473 38.7997C47.614 39.0676 47.3696 39.2015 47.0585 39.2015C46.7252 39.2015 46.4808 39.0229 46.4142 38.7104L42.0816 25.7395H39.1932C39.4376 26.4985 40.2152 28.932 40.7929 30.8073C41.7039 33.6872 42.3704 35.8304 42.8148 37.1476C43.7924 40.0722 44.059 40.608 44.1257 40.6973C44.3923 41.0992 44.77 41.3894 45.3033 41.5903C45.8365 41.7913 46.4364 41.9029 47.0807 41.9029C47.7029 41.9029 48.3028 41.7913 48.836 41.568C49.3693 41.3671 49.747 41.0769 50.0136 40.6973C50.0802 40.5857 50.3469 40.0276 51.3245 37.1253C51.9466 35.2277 52.6354 33.0844 53.3686 30.7849C53.5019 30.3384 53.6352 29.9143 53.7685 29.5124C54.1462 28.4631 54.5684 27.4362 55.035 26.4315C55.1016 26.2976 55.1683 26.1636 55.2127 26.0297C56.1459 24.0427 57.2124 22.1451 58.4344 20.3144C60.7896 16.8094 63.6335 13.6615 66.8996 10.9825C70.1658 8.30348 73.8318 6.11561 77.7423 4.5082C81.6527 2.90078 85.8298 1.87383 90.0513 1.4943C94.3173 1.11477 98.6277 1.33802 102.805 2.18638C106.982 3.05706 111.048 4.55285 114.803 6.60677C122.224 10.67 128.423 16.9657 132.466 24.5116C132.511 24.6232 132.578 24.7348 132.622 24.8241C132.578 24.7348 132.511 24.6232 132.466 24.5116Z" fill="#FF805D"></path>
<path d="M91.6293 25.8076H77.8094C77.7872 25.8076 77.765 25.8299 77.7427 25.8523C77.7205 25.8746 77.7205 25.9192 77.7205 25.9639V41.279C77.7205 41.3013 77.7205 41.346 77.7427 41.3683C77.765 41.3906 77.7872 41.4129 77.8094 41.4129H80.0313C80.0757 41.4129 80.0979 41.3906 80.1201 41.3683C80.1423 41.346 80.1423 41.3236 80.1423 41.279V36.3005H90.4962L92.3625 41.3236C92.3847 41.3683 92.407 41.3906 92.4514 41.3906H94.9177C94.9621 41.3906 94.9843 41.3683 95.0065 41.3236C95.0287 41.279 95.0287 41.2343 95.0287 41.1897L93.0957 35.9879L93.0513 35.854C93.6734 35.4968 94.1622 34.961 94.5399 34.2465C94.9177 33.5321 95.0954 32.7061 95.0954 31.8131V30.2503C95.0954 29.0224 94.7621 27.9732 94.0733 27.1025C93.4068 26.2318 92.5847 25.8076 91.6293 25.8076ZM92.6514 32.2596C92.6514 32.6391 92.5625 32.9517 92.3403 33.1973C92.1403 33.4652 91.8959 33.5991 91.6071 33.5991H80.1201V28.4866H91.6071C91.8959 28.4866 92.1403 28.6206 92.3403 28.8662C92.5403 29.1341 92.6514 29.4466 92.6514 29.8038V32.2596Z" fill="#134F89"></path>
<path d="M111.582 32.2604H101.139C100.85 32.2604 100.606 32.1265 100.406 31.8809C100.206 31.613 100.095 31.3005 100.095 30.9209V29.8047C100.095 29.4251 100.206 29.1126 100.406 28.8447C100.606 28.5768 100.85 28.4652 101.139 28.4652H114.27C114.292 28.4652 114.315 28.4428 114.337 28.4205C114.359 28.3982 114.359 28.3759 114.359 28.3312V25.9201C114.359 25.8978 114.359 25.8531 114.337 25.8308C114.315 25.8085 114.292 25.7861 114.27 25.7861H101.139C100.184 25.7861 99.3616 26.2103 98.695 27.081C98.0285 27.9517 97.673 29.001 97.673 30.2288V30.4521C97.673 31.68 98.0063 32.7293 98.695 33.6C99.3616 34.4706 100.184 34.8948 101.139 34.8948H111.582C111.871 34.8948 112.115 35.0288 112.315 35.2967C112.515 35.5646 112.626 35.8771 112.626 36.2343V37.3506C112.626 37.7078 112.515 38.0203 112.315 38.2882C112.115 38.5561 111.871 38.6678 111.582 38.6678H98.4506C98.4284 38.6678 98.4062 38.6901 98.384 38.7124C98.3617 38.7347 98.3618 38.7794 98.3618 38.824V41.2128C98.3618 41.2575 98.3617 41.2798 98.384 41.3245C98.4062 41.3468 98.4284 41.3691 98.4506 41.3691H111.582C112.537 41.3691 113.359 40.9226 114.026 40.0519C114.692 39.1812 115.048 38.132 115.048 36.9041V36.6808C115.048 35.4529 114.715 34.4037 114.026 33.533C113.359 32.6846 112.537 32.2604 111.582 32.2604Z" fill="#134F89"></path>
<path d="M17.286 25.8066H0.111093C0.0888741 25.8066 0.0666556 25.829 0.044437 25.8513C0.0222185 25.8736 0 25.8959 0 25.9406V28.3517C0 28.374 0 28.4187 0.0222185 28.441C0.044437 28.4633 0.0666556 28.4857 0.0888741 28.4857H7.46542V41.2557C7.46542 41.3003 7.46542 41.3227 7.48764 41.3673C7.50986 41.3896 7.53208 41.412 7.57652 41.412H9.79837C9.82059 41.412 9.8428 41.3896 9.86502 41.3673C9.88724 41.345 9.88724 41.3003 9.88724 41.2557V28.4857H17.2638C17.286 28.4857 17.3082 28.4633 17.3304 28.441C17.3527 28.4187 17.3527 28.3964 17.3527 28.3517V25.9629C17.3527 25.9183 17.3527 25.8959 17.3304 25.8513C17.3527 25.8066 17.3304 25.8066 17.286 25.8066Z" fill="#134F89"></path>
<path d="M34.0609 25.8076H20.2409C20.2187 25.8076 20.1965 25.8299 20.1743 25.8523C20.1521 25.8746 20.1521 25.9192 20.1521 25.9639V41.279C20.1521 41.3013 20.1521 41.346 20.1743 41.3683C20.1965 41.3906 20.2187 41.4129 20.2409 41.4129H22.4628C22.485 41.4129 22.5295 41.3906 22.5517 41.3683C22.5739 41.346 22.5739 41.3236 22.5739 41.279V36.3005H32.9277L34.7941 41.3236C34.8163 41.3683 34.8385 41.3906 34.8829 41.3906H37.3492C37.3936 41.3906 37.4159 41.3683 37.4381 41.3236C37.4603 41.279 37.4603 41.2343 37.4603 41.1897L35.5273 35.9879L35.4828 35.854C36.105 35.4968 36.5938 34.961 36.9715 34.2465C37.3492 33.5321 37.5269 32.7061 37.5269 31.8131V30.2503C37.5269 29.0224 37.1937 27.9732 36.5049 27.1025C35.8383 26.2318 35.0163 25.8076 34.0609 25.8076ZM35.1051 32.2596C35.1051 32.6391 34.994 32.9517 34.7941 33.1973C34.5941 33.4652 34.3497 33.5991 34.0609 33.5991H22.5739V28.4866H34.0609C34.3497 28.4866 34.5941 28.6206 34.7941 28.8662C34.994 29.1341 35.1051 29.4466 35.1051 29.8038V32.2596Z" fill="#134F89"></path>
<path d="M133 25.7861H117.914C117.403 25.7861 116.936 26.0987 116.758 26.5898C116.58 27.081 116.736 27.6168 117.114 27.9517L123.979 33.7562L117.669 39.2259C117.291 39.5608 117.136 40.0966 117.314 40.5877C117.491 41.0789 117.958 41.3914 118.469 41.3914H132.978V38.9357H121.757L126.645 34.6939C126.912 34.4483 127.068 34.1134 127.068 33.7562C127.068 33.399 126.912 33.0641 126.623 32.8186L121.224 28.2419H132.956V25.7861H133Z" fill="#134F89"></path>
<path d="M58.0571 26.5898C57.8794 27.081 58.0349 27.6168 58.4126 27.9517L65.2781 33.7562L58.9681 39.2259C58.5904 39.5608 58.4348 40.0966 58.6126 40.5877C58.7903 41.0789 59.2569 41.3914 59.7679 41.3914H74.2766V38.9357H63.0563L67.9443 34.6939C68.211 34.4483 68.3665 34.1134 68.3665 33.7562C68.3665 33.399 68.211 33.0641 67.9221 32.8186L62.523 28.2419H74.2544V25.7861H59.168C58.7015 25.7861 58.2349 26.121 58.0571 26.5898Z" fill="#134F89"></path>
</svg>