<svg width="160" height="60" viewBox="0 0 160 60" fill="none" xmlns="http://www.w3.org/2000/svg">
<g clip-path="url(#clip0_466_1194)">
<mask id="mask0_466_1194" style="mask-type:luminance" maskUnits="userSpaceOnUse" x="25" y="8" width="106" height="40">
<path d="M130.668 8H25V47.1927H130.668V8Z" fill="white"/>
</mask>
<g mask="url(#mask0_466_1194)">
<path d="M126.891 8.04457C126.451 8.03072 126.012 8.10662 125.602 8.26779C125.19 8.42887 124.817 8.67189 124.499 8.98233C124.183 9.29286 123.932 9.66457 123.76 10.0753C123.589 10.486 123.5 10.9276 123.5 11.3736C123.5 11.8197 123.589 12.2613 123.76 12.672C123.932 13.0828 124.183 13.4544 124.499 13.765C124.817 14.0755 125.19 14.3184 125.602 14.4796C126.012 14.6407 126.451 14.7166 126.891 14.7027C128.843 14.7027 130.353 13.2692 130.353 11.3736C130.353 9.47813 128.843 8.04457 126.891 8.04457ZM78.323 18.0159C72.1085 18.0159 67.1367 22.3963 67.1367 28.943C67.1367 35.4897 72.1085 39.8861 78.323 39.8861C81.1551 39.8861 83.8292 38.994 86.0485 36.7958L82.8068 33.5146C81.5955 34.8048 80.0383 35.7286 77.82 35.7286C74.9406 35.7286 72.6279 33.865 72.281 30.7748H87.9671V29.3412C87.9671 22.0936 84.0817 18.0159 78.323 18.0159ZM98.2732 18.0159C94.1189 18.0159 89.9974 20.1026 89.9974 24.7378C89.9974 32.6863 101.089 29.2934 101.089 33.5942C101.089 35.2508 99.1539 35.9835 97.6593 35.9835C95.4719 35.9835 94.1035 34.9003 92.7814 33.4349L89.4626 36.7958C91.5547 39.0896 94.2452 39.8861 97.3606 39.8861C101.561 39.8861 106.234 38.1498 106.234 33.1959C106.234 25.0723 95.1259 28.1147 95.1259 24.3874C95.1259 22.8264 96.7622 22.1733 98.1315 22.1733C99.8776 22.1733 101.152 22.906 102.143 24.2758L105.416 20.9627C103.748 18.8442 100.932 18.0159 98.2732 18.0159ZM119.938 18.0159C117.232 18.0159 114.965 19.4495 113.848 21.8229H113.77V18.5256H108.626V39.3604H113.77V28.2103C113.77 27.0794 114.447 22.9538 119.292 22.9538C120.058 22.9736 120.818 23.0859 121.557 23.2883L121.763 18.3026C121.167 18.135 120.554 18.0388 119.938 18.0159ZM124.374 18.5415V39.3763H129.519V18.5415H124.374ZM77.5993 21.9185C80.8092 21.9185 82.7914 23.8299 82.8386 26.8722H72.2974C72.6751 23.8777 74.5629 21.9185 77.5993 21.9185Z" fill="#231F20"/>
<path d="M27.646 28.5457C27.6429 31.7377 28.5749 34.859 30.3243 37.5146C32.0737 40.1702 34.5617 42.2408 37.4737 43.4646C40.3858 44.6884 43.5908 45.0101 46.6834 44.3893C49.7761 43.7686 52.6174 42.233 54.8479 39.977C57.0784 37.721 58.5979 34.8459 59.2142 31.7155C59.8304 28.5849 59.5157 25.3398 58.3099 22.3904C57.1041 19.441 55.0613 16.92 52.44 15.1463C49.8187 13.3725 46.7366 12.4258 43.5838 12.4258C39.3596 12.4258 35.3081 14.1236 32.3196 17.1463C29.3312 20.1688 27.6501 24.269 27.646 28.5457Z" fill="url(#paint0_radial_466_1194)"/>
<path d="M36.8494 15.8652C35.6526 15.9315 34.4603 16.0643 33.2779 16.2635C31.5781 17.72 30.1997 19.5221 29.2321 21.5528C28.2646 23.5834 27.7294 25.7972 27.6611 28.0507C28.6051 29.0542 29.8481 31.3161 31.2641 32.6222C31.4641 32.5359 31.669 32.4614 31.8776 32.3993C31.1696 31.571 30.1942 30.4719 30.0526 29.9781C29.3289 27.5091 30.1627 25.1995 31.9721 25.0243C33.5926 24.865 34.977 22.412 36.1256 20.8191C38.4698 17.5218 42.0885 18.0793 41.9154 16.4227C41.7109 15.467 41.1445 15.1643 40.4208 15.1643C39.3509 15.1484 37.9192 15.8174 36.8494 15.8652Z" fill="url(#paint1_radial_466_1194)"/>
<path d="M32.57 32.1954C32.334 32.2591 32.1137 32.3228 31.8936 32.3865C31.7047 32.4343 31.5474 32.514 31.2799 32.6095C30.6978 32.8804 30.273 33.2786 30.1786 34.1387C30.0055 35.6998 31.4687 36.9422 32.7117 37.2926C34.285 37.7545 34.4109 37.213 35.2447 38.3439C35.8268 39.1404 35.937 40.5898 36.2202 41.5615C36.3902 42.1124 36.6115 42.6457 36.8809 43.1544C38.0182 43.6965 39.218 44.0925 40.4524 44.3332C40.7671 42.4694 40.6254 39.9687 41.0345 38.8854C41.8841 36.6714 42.3561 35.6838 41.2233 33.406C38.7218 32.6893 37.9666 32.4662 35.4335 31.9406C35.0676 31.8484 34.6932 31.795 34.3164 31.7812C33.8444 31.7972 33.4669 31.9406 32.57 32.1954Z" fill="url(#paint2_radial_466_1194)"/>
<path d="M48.0682 19.3399C47.3287 20.4071 44.7484 20.6938 43.9145 21.9043C43.2695 22.8441 43.9303 24.676 43.3796 25.7432C43.1122 26.237 43.238 27.6546 43.5527 28.1165C44.5439 29.582 46.2116 28.7696 47.4545 29.2953C48.9806 29.9324 49.1537 31.7164 50.4124 33.0226C51.671 34.3287 48.8076 36.3518 51.1518 41.0985C51.356 41.5347 51.645 41.9247 52.0014 42.2453C53.5859 41.245 54.986 39.9729 56.1393 38.4862C56.5011 36.0809 55.6987 35.3163 56.6899 33.1182C57.3036 31.7642 58.3734 29.4227 59.5062 27.8298C59.4156 25.6984 58.9071 23.6064 58.0103 21.6758C57.1135 19.7451 55.8465 18.0144 54.2828 16.5842C53.905 16.6738 53.512 16.6738 53.1342 16.5842C52.7503 16.5113 52.3606 16.4739 51.9699 16.4727C49.61 16.4887 48.902 18.1292 48.0682 19.3399Z" fill="url(#paint3_radial_466_1194)"/>
<path d="M41.7588 45.6681C41.2238 45.3654 40.563 44.8876 39.9495 44.4734C39.6977 44.6965 39.4932 45.0469 39.2886 45.3176C39.9966 45.5566 40.9564 45.5725 41.7588 45.6681ZM38.974 43.7567C37.8412 42.8965 35.0407 40.2205 33.8921 38.5957C33.4674 38.8506 32.9954 39.5355 32.3817 39.6629C32.1457 39.7107 31.5951 39.7744 31.4378 39.7107C31.2804 39.647 31.4692 39.2966 31.6422 39.0736C32.0368 38.5384 32.5027 38.0613 33.0268 37.656C31.6422 35.6171 30.9972 34.1198 30.0532 31.6508C29.5647 31.9648 29.097 32.3106 28.6529 32.6861C28.4956 32.8136 28.0551 32.8932 27.8505 32.7021C27.4573 32.3517 27.4573 31.7304 28.0079 31.3482C28.2282 31.1889 29.3295 30.4243 29.5969 30.2012C28.9204 28.2261 28.354 25.6297 28.1967 24.2758C27.7405 24.674 27.1111 25.12 26.9381 25.2475C26.7718 25.2876 26.598 25.2821 26.4346 25.2315C26.1902 28.1492 26.4836 31.0876 27.2999 33.8968C28.7159 38.6754 32.6649 43.231 38.0143 44.9354C38.1086 44.6965 38.7223 43.9797 38.974 43.7567ZM28.0079 22.7944C27.945 21.7591 27.8663 20.3414 27.8663 20.3414C27.1111 21.998 26.6705 22.9855 26.4503 24.913C26.9695 23.9732 28.0079 22.7944 28.0079 22.7944ZM36.0319 10.9594C39.1313 9.65324 42.1521 8.93646 45.6449 9.43021C46.0382 9.47802 46.0067 9.81256 45.5819 9.82846L45.0942 9.84436C42.278 9.89217 38.1559 10.8001 36.0161 12.0107C35.9689 13.4602 36.2364 15.7539 36.5353 17.5539C38.4863 16.7255 41.4756 15.8813 43.7726 15.6265C42.7601 14.5828 41.6657 13.6239 40.5001 12.7593C40.3929 12.6686 40.3086 12.5534 40.2539 12.4233C40.1992 12.2931 40.1757 12.1518 40.1855 12.0107C40.2169 11.3735 40.7518 11.3098 41.035 11.3735C42.1844 11.1025 43.3639 10.9847 44.5435 11.0231C51.3403 10.7205 57.5549 14.623 59.915 19.0512C65.9251 28.6722 59.915 41.9249 52.0483 45.4611C48.6814 46.9742 45.8022 47.6273 40.4844 46.8787C35.1666 46.13 30.8084 43.4858 27.4258 37.9426C23.2565 31.1092 25.6007 23.1608 26.1829 21.4883C28.6845 15.515 32.7908 12.3292 36.0319 10.9594ZM28.9991 18.2388C28.9047 18.9556 28.9991 20.2936 29.1879 21.8706C30.6353 20.5644 33.4201 18.8601 35.7644 17.8088C35.4969 16.0088 35.2138 13.1416 35.2295 12.377C33.074 13.5717 30.6983 15.9928 28.9677 18.4618M29.3138 23.3201C29.5183 24.7536 30.1949 27.8279 30.8084 29.389C32.2559 28.2898 35.5284 26.235 37.3849 25.4067C36.7399 23.0174 36.2993 21.5042 35.9375 19.099C33.31 20.2777 30.541 22.1095 29.3138 23.3201ZM31.3748 30.7588C32.2402 33.2437 33.0583 35.1392 34.1438 36.7002C35.4183 35.5852 38.0143 33.8172 39.9966 32.8613C39.3358 31.4437 38.3918 28.7677 37.7311 26.7767C35.4838 27.8812 33.354 29.2156 31.3748 30.7588ZM34.9463 37.7834C36.2993 39.5355 38.4076 41.7496 39.8707 42.9762C41.1944 41.8807 42.6289 40.9302 44.1502 40.1409C43.0174 38.3728 41.3497 35.7923 40.6575 34.1994C38.1559 35.3303 36.7241 36.286 34.9463 37.7834ZM40.7518 43.7567C41.2868 44.2982 43.4108 45.7318 43.4108 45.7318C44.9074 45.7685 46.404 45.6565 47.879 45.3972C47.171 44.585 45.4246 42.0841 44.8896 41.2399C43.4024 41.8815 42.0098 42.7285 40.7518 43.7567ZM49.3422 45.0309C50.0502 44.792 51.8752 43.9637 52.2528 43.7089C52.3364 42.3138 52.3416 40.9152 52.2686 39.5196C50.3491 39.5196 47.6588 40.0931 46.1168 40.7461C47.0774 42.2592 48.156 43.692 49.3422 45.0309ZM53.2598 43.1513C54.6915 42.2434 56.0445 41.2081 57.02 39.9496C56.1705 39.7426 54.2981 39.4718 53.3541 39.5355C53.3699 39.5355 53.3384 41.7974 53.2598 43.1513ZM57.4763 39.3603C57.8046 39.0007 58.0849 38.599 58.3101 38.1656C58.4675 36.7958 58.4675 33.9605 58.4203 33.1322C56.784 32.4632 54.2352 31.9216 52.3944 31.7941C52.9923 34.0401 53.2912 37.3214 53.3384 38.4046C54.2352 38.5002 56.4694 38.9621 57.4763 39.3603ZM59.8992 32.9729C59.8205 33.2278 59.3642 33.4985 59.1598 33.4348C59.1912 33.8968 59.081 36.1905 58.9709 37.0825C59.4006 36.1145 59.7685 35.1196 60.0722 34.1038L60.324 33.1003C61.0436 30.5837 61.1569 27.9291 60.6544 25.359C59.8205 21.0104 58.2787 19.4653 57.728 18.7804C56.3434 18.0158 54.2667 17.3309 54.2667 17.3309C56.1547 19.9273 56.8155 21.1378 57.9483 24.228C58.609 24.5784 59.789 25.2475 59.9464 25.4227C60.0722 25.566 60.0722 25.8209 59.6947 25.8209C59.3799 25.8209 58.7821 25.5182 58.3101 25.3908C58.8136 27.0793 59.1912 30.2172 59.1598 32.3198C59.1439 32.3198 59.9621 32.718 59.8992 32.9729ZM56.7368 17.3309C54.1093 14.0814 48.178 11.3098 41.5857 11.7399C43.0646 12.7275 44.2918 14.2088 45.3616 15.4354C47.0137 15.2761 50.475 15.5628 51.7808 15.9291C51.5606 15.6583 51.2931 15.4035 51.2145 15.2442C51.0256 14.846 51.4819 14.7504 51.828 14.9893C52.3307 15.2869 52.7956 15.6452 53.2126 16.0566C54.4249 16.3661 55.6051 16.7928 56.7368 17.3309ZM58.4046 31.9853C58.2944 29.8827 57.9797 27.0952 57.2088 25.136C55.1793 24.3077 52.3944 23.7979 49.9558 23.7661C50.711 25.5501 51.5763 28.5129 52.0168 30.4243C53.779 30.6473 56.5323 31.1571 58.4046 31.9853ZM52.6934 16.9964C50.8525 16.6618 48.178 16.4389 46.1956 16.5663C47.5486 18.4618 48.5398 20.1184 49.4838 22.4759C52.0011 22.5396 55.4153 23.3042 56.8155 23.8616C55.9659 21.5998 54.3768 18.7326 52.6934 16.9964ZM41.1767 32.3039C44.1857 30.9196 47.4707 30.2599 50.7739 30.3765C49.8771 27.2067 49.3579 25.7412 48.587 23.7979C45.2299 23.937 41.9367 24.7719 38.9111 26.251C39.5349 28.3166 40.2918 30.3385 41.1767 32.3039ZM51.12 31.7145C47.3755 31.6667 44.103 32.5747 41.8531 33.6896C42.7971 35.7604 44.6695 38.5002 45.3774 39.6311C46.5238 39.1928 47.7092 38.8674 48.9174 38.6595C49.9401 38.5002 51.2931 38.3409 52.2057 38.3728C52.0483 35.9516 51.7651 34.3268 51.12 31.7145ZM38.4705 24.9449C41.5181 23.5951 44.7673 22.7713 48.0835 22.5077C47.2497 20.4135 46.092 18.4671 44.6537 16.7415C41.7273 16.9805 39.0684 17.7769 36.7556 18.7326C37.1017 20.5644 37.7468 22.7626 38.4705 24.9449Z" fill="#231F20"/>
</g>
</g>
<defs>
<radialGradient id="paint0_radial_466_1194" cx="0" cy="0" r="1" gradientUnits="userSpaceOnUse" gradientTransform="translate(38.4639 25.5187) scale(11.2946 11.4349)">
<stop stop-color="#BFE6F9"/>
<stop offset="1" stop-color="#1478C7"/>
</radialGradient>
<radialGradient id="paint1_radial_466_1194" cx="0" cy="0" r="1" gradientUnits="userSpaceOnUse" gradientTransform="translate(37.8898 25.7803) scale(13.8693 14.0417)">
<stop stop-color="#A6D71C"/>
<stop offset="0.96" stop-color="#23A03D"/>
<stop offset="1" stop-color="#23A03D"/>
</radialGradient>
<radialGradient id="paint2_radial_466_1194" cx="0" cy="0" r="1" gradientUnits="userSpaceOnUse" gradientTransform="translate(41.3232 24.7459) scale(17.6112 17.83)">
<stop stop-color="#A6D71C"/>
<stop offset="0.96" stop-color="#23A03D"/>
<stop offset="1" stop-color="#23A03D"/>
</radialGradient>
<radialGradient id="paint3_radial_466_1194" cx="0" cy="0" r="1" gradientUnits="userSpaceOnUse" gradientTransform="translate(42.5906 17.1139) scale(23.2757 23.5649)">
<stop stop-color="#A6D71C"/>
<stop offset="0.96" stop-color="#23A03D"/>
<stop offset="1" stop-color="#23A03D"/>
</radialGradient>
<clipPath id="clip0_466_1194">
<rect width="106" height="40" fill="white" transform="translate(25 8)"/>
</clipPath>
</defs>
</svg>
