<svg width="160" height="60" viewBox="0 0 160 60" fill="none" xmlns="http://www.w3.org/2000/svg">
<path d="M103.618 47.2354V47.3338H103.711C103.729 47.3341 103.746 47.3298 103.761 47.3213C103.768 47.3171 103.773 47.3114 103.776 47.3048C103.779 47.2982 103.78 47.291 103.78 47.2836C103.78 47.2764 103.779 47.2693 103.776 47.2629C103.773 47.2564 103.768 47.251 103.761 47.2469C103.746 47.238 103.729 47.2337 103.711 47.2344H103.618V47.2354ZM103.713 47.1657C103.752 47.1633 103.792 47.1746 103.824 47.1977C103.838 47.2082 103.848 47.2215 103.855 47.2367C103.862 47.2518 103.865 47.2683 103.864 47.2849C103.864 47.2991 103.862 47.3133 103.857 47.3265C103.851 47.3397 103.843 47.3516 103.832 47.3614C103.807 47.3828 103.776 47.3957 103.742 47.3981L103.868 47.5383H103.771L103.657 47.3991H103.619V47.5383H103.539V47.166L103.713 47.1657ZM103.688 47.6668C103.73 47.6673 103.771 47.6589 103.81 47.6422C103.886 47.6103 103.946 47.5513 103.978 47.4771C104.011 47.3991 104.011 47.3115 103.978 47.2334C103.962 47.1968 103.939 47.1634 103.91 47.135C103.881 47.1067 103.848 47.084 103.81 47.0683C103.771 47.0526 103.73 47.0447 103.688 47.0452C103.645 47.0447 103.602 47.0526 103.563 47.0683C103.524 47.0838 103.489 47.1064 103.46 47.135C103.416 47.1796 103.386 47.2361 103.374 47.2974C103.363 47.3586 103.369 47.422 103.393 47.4795C103.409 47.5165 103.431 47.55 103.46 47.578C103.489 47.6065 103.524 47.6292 103.563 47.6447C103.602 47.6613 103.645 47.6697 103.688 47.6693M103.688 46.9556C103.797 46.9555 103.903 46.9979 103.981 47.0737C104.039 47.1296 104.079 47.2015 104.094 47.2798C104.11 47.3581 104.101 47.4393 104.07 47.5127C104.048 47.5605 104.019 47.6038 103.981 47.6405C103.943 47.6767 103.898 47.7059 103.85 47.7266C103.798 47.748 103.743 47.7589 103.688 47.7586C103.631 47.759 103.575 47.7481 103.523 47.7266C103.474 47.7071 103.428 47.6777 103.39 47.6402C103.352 47.6026 103.323 47.5578 103.303 47.5086C103.272 47.4351 103.263 47.3539 103.279 47.2756C103.294 47.1973 103.334 47.1255 103.392 47.0695C103.43 47.0322 103.475 47.0029 103.525 46.9834C103.576 46.9619 103.633 46.951 103.689 46.9514M65.4114 45.5175C65.4114 44.8075 65.8839 44.2242 66.656 44.2242C67.3939 44.2242 67.8919 44.7823 67.8919 45.5175C67.8919 46.2527 67.3939 46.8108 66.656 46.8108C65.8839 46.8108 65.4114 46.2275 65.4114 45.5175ZM68.7331 45.5175V43.4969H67.8409V43.9891C67.5579 43.6254 67.1287 43.3985 66.5451 43.3985C65.3951 43.3985 64.4928 44.2864 64.4928 45.5197C64.4928 46.753 65.3946 47.641 66.5451 47.641C67.1285 47.641 67.5579 47.4126 67.8409 47.0503V47.5408H68.7321V45.5175H68.7331ZM98.8778 45.5175C98.8778 44.8075 99.3503 44.2242 100.123 44.2242C100.861 44.2242 101.359 44.7823 101.359 45.5175C101.359 46.2527 100.861 46.8108 100.123 46.8108C99.3503 46.8108 98.8778 46.2275 98.8778 45.5175ZM102.2 45.5175V41.875H101.308V43.9891C101.025 43.6254 100.595 43.3985 100.012 43.3985C98.862 43.3985 97.9597 44.2864 97.9597 45.5197C97.9597 46.753 98.8614 47.641 100.012 47.641C100.595 47.641 101.025 47.4126 101.308 47.0503V47.5408H102.2V45.5175ZM79.806 44.1826C80.3808 44.1826 80.7499 44.5375 80.8445 45.1624H78.7157C78.811 44.5791 79.1706 44.1826 79.806 44.1826ZM79.8236 43.395C78.6217 43.395 77.7806 44.2564 77.7806 45.5163C77.7806 46.8008 78.6551 47.6375 79.8836 47.6375C80.5019 47.6375 81.0672 47.4857 81.5657 47.0715L81.1284 46.4205C80.7846 46.6913 80.3461 46.8431 79.9347 46.8431C79.3599 46.8431 78.8362 46.581 78.7075 45.8537H81.7537C81.7625 45.7444 81.772 45.6341 81.772 45.516C81.7626 44.2567 80.972 43.395 79.8236 43.395ZM90.5946 45.5151C90.5946 44.805 91.0673 44.2217 91.8396 44.2217C92.5771 44.2217 93.0756 44.7799 93.0756 45.5151C93.0756 46.2502 92.5771 46.8084 91.8396 46.8084C91.0673 46.8084 90.5946 46.2251 90.5946 45.5151ZM93.916 45.5151V43.4969H93.0244V43.9891C92.7405 43.6254 92.3121 43.3985 91.7284 43.3985C90.5788 43.3985 89.6766 44.2864 89.6766 45.5197C89.6766 46.753 90.5782 47.641 91.7284 47.641C92.3121 47.641 92.7405 47.4126 93.0244 47.0503V47.5408H93.9166L93.916 45.5151ZM85.5565 45.5151C85.5565 46.7405 86.4228 47.6363 87.7452 47.6363C88.3636 47.6363 88.775 47.5009 89.2204 47.1547L88.792 46.4446C88.457 46.6816 88.1049 46.8084 87.7168 46.8084C87.0045 46.7998 86.4808 46.2928 86.4808 45.5151C86.4808 44.7373 87.0058 44.2306 87.7168 44.2217C88.1043 44.2217 88.4557 44.3485 88.792 44.5855L89.2204 43.8754C88.7743 43.5292 88.3623 43.3938 87.7452 43.3938C86.4228 43.3938 85.5565 44.2894 85.5565 45.5151ZM97.0581 43.3938C96.5432 43.3938 96.2083 43.6308 95.9761 43.9857V43.4969H95.0921V47.5362H95.9855V45.2719C95.9855 44.6034 96.277 44.2321 96.86 44.2321C97.0512 44.2293 97.2411 44.2638 97.4184 44.3337L97.6928 43.5057C97.4953 43.4292 97.2379 43.3955 97.0575 43.3955M73.1439 43.8181C72.7146 43.5395 72.1232 43.3955 71.4708 43.3955C70.4314 43.3955 69.7622 43.886 69.7622 44.6886C69.7622 45.3472 70.2604 45.7535 71.1778 45.8803L71.5993 45.9393C72.0885 46.0071 72.3195 46.1338 72.3195 46.362C72.3195 46.6742 71.9945 46.8525 71.3843 46.8525C70.7664 46.8525 70.3204 46.658 70.0197 46.4299L69.6005 47.1148C70.0897 47.4697 70.7076 47.639 71.3768 47.639C72.5617 47.639 73.2485 47.0897 73.2485 46.3206C73.2485 45.6105 72.7079 45.2392 71.815 45.1124L71.3946 45.0524C71.0083 45.0031 70.6989 44.9266 70.6989 44.6559C70.6989 44.3605 70.9906 44.1828 71.48 44.1828C72.005 44.1828 72.5107 44.3772 72.7592 44.5291L73.1454 43.8191L73.1439 43.8181ZM84.6555 43.3962C84.1406 43.3962 83.8056 43.6333 83.5746 43.9869V43.4947H82.6907V47.5339H83.5828V45.2697C83.5828 44.6013 83.8743 44.2298 84.458 44.2298C84.6485 44.2271 84.8384 44.2616 85.0157 44.3315L85.2908 43.5036C85.0933 43.427 84.8359 43.3933 84.6548 43.3933M77.0424 43.4969H75.5836V42.2715H74.6814V43.4969H73.8491V44.2997H74.6814V46.1424C74.6814 47.0796 75.0511 47.6378 76.1061 47.6378C76.4935 47.6378 76.9396 47.5196 77.2222 47.3255L76.9648 46.5734C76.6985 46.7252 76.407 46.8017 76.1748 46.8017C75.7288 46.8017 75.5836 46.531 75.5836 46.1256V44.3005H77.0424V43.4969ZM63.7039 47.5372V45.0021C63.7039 44.0474 63.0859 43.4051 62.0898 43.3965C61.5661 43.3879 61.0259 43.5484 60.6477 44.1152C60.3647 43.6672 59.9187 43.3965 59.2918 43.3965C58.8536 43.3965 58.4254 43.5233 58.0902 43.9963V43.4969H57.1973V47.5362H58.0972V45.2965C58.0972 44.5953 58.4922 44.2227 59.1021 44.2227C59.6945 44.2227 59.9943 44.6029 59.9943 45.2876V47.5357H60.8961V45.296C60.8961 44.5949 61.3078 44.2222 61.9 44.2222C62.5092 44.2222 62.7999 44.6024 62.7999 45.2871V47.5352L63.7039 47.5372Z" fill="#231F20"/>
<path d="M104.127 34.0985V33.5078H103.971L103.79 33.9132L103.611 33.5078H103.454V34.0985H103.565V33.6535L103.734 34.0375H103.849L104.018 33.6526V34.0985H104.127ZM103.137 34.0985V33.609H103.337V33.5093H102.826V33.609H103.026V34.0985H103.137Z" fill="#F79410"/>
<path d="M86.3692 36.6333H72.8491V12.7109H86.3692V36.6333Z" fill="#FF5F00"/>
<path d="M73.7072 24.6712C73.7072 19.8185 76.0152 15.4957 79.6085 12.71C76.8884 10.5982 73.5242 9.45202 70.06 9.45705C61.5266 9.45705 54.6094 16.2685 54.6094 24.6712C54.6094 33.0737 61.5266 39.8853 70.06 39.8853C73.5242 39.8904 76.8891 38.7442 79.6091 36.6324C76.0158 33.8471 73.7072 29.5241 73.7072 24.6712Z" fill="#EB001B"/>
<path d="M104.505 24.4563C104.505 32.8589 97.5876 39.6704 89.054 39.6704C85.5894 39.6753 82.2246 38.5292 79.5039 36.4175C83.0984 33.6317 85.4065 29.3092 85.4065 24.4563C85.4065 19.6034 83.0984 15.2809 79.5039 12.4951C82.2246 10.3834 85.5894 9.2373 89.054 9.2422C97.587 9.2422 104.505 16.0536 104.505 24.4563Z" fill="#F79E1B"/>
</svg>
