<svg width="160" height="60" viewBox="0 0 160 60" fill="none" xmlns="http://www.w3.org/2000/svg">
<g clip-path="url(#clip0_670_30)">
<path d="M121.389 25.7407C124.842 25.2788 128.012 27.7175 128.467 31.1845C128.921 34.6515 126.488 37.8311 123.034 38.2822C119.588 38.7322 116.43 36.2952 115.976 32.8358C115.522 29.3764 117.945 26.2016 121.389 25.7407ZM122.606 35.4224C123.1 35.3214 123.518 35.2392 123.941 34.9567C126.514 33.241 125.492 28.1635 122.02 28.6055C119.863 28.7764 118.953 30.2816 119.098 32.3826C119.234 34.3647 120.632 35.5409 122.606 35.4224Z" fill="black"/>
<path d="M132.383 25.9151C132.705 25.8821 134.06 25.8961 134.427 25.9071C136.174 25.9667 137.723 25.695 139.432 26.22C141.537 26.8664 142.394 29.0585 141.796 31.0927C141.466 32.2205 140.372 32.8785 139.347 33.3738C140.033 34.4754 141.583 37.0006 142.063 38.1324C141.48 38.1747 140.592 38.1503 139.985 38.1517L138.66 38.1505C137.787 36.9272 137.176 35.2296 136.299 33.9833C136.163 33.7914 135.893 33.4757 135.655 33.6448C135.413 34.2487 135.558 37.1887 135.511 38.1582C134.607 38.1591 133.256 38.2001 132.387 38.1238L132.383 25.9151ZM138.498 30.9325C138.939 30.2065 139.118 29.2673 138.246 28.7869C137.477 28.3629 136.382 28.4874 135.533 28.5134C135.535 29.4078 135.509 30.4547 135.544 31.3367C136.652 31.3659 137.574 31.5333 138.498 30.9325Z" fill="black"/>
<path d="M38.9871 25.2867C40.7975 25.2756 43.344 25.0462 44.9746 25.7881C46.8125 26.6243 47.3875 29.3226 46.474 31.0331C45.8768 32.1513 45.1281 32.5403 43.9662 32.9154C44.6818 34.1583 46.6069 37.2658 47.0858 38.4144C45.9386 38.5085 45.6783 38.6724 45.1363 37.5492C44.5283 36.7106 43.2207 34.1623 42.5526 33.052L40.305 33.0527C40.2895 34.8509 40.2839 36.6492 40.2883 38.4476C39.8603 38.454 39.4129 38.4419 38.9833 38.4366C38.9221 37.2684 38.9846 35.3734 38.9849 34.1659L38.9871 25.2867ZM40.3015 31.8631C41.8537 31.858 43.5863 32.0853 44.8104 31.1415C45.5027 30.2075 45.6009 29.5903 45.4593 28.4336C45.1701 26.07 41.9613 26.493 40.3021 26.5177C40.2896 28.2995 40.2894 30.0814 40.3015 31.8631Z" fill="black"/>
<path d="M146.098 25.9205C148.503 25.8353 151.158 25.9236 153.606 25.8946C153.672 26.6008 153.64 27.7067 153.64 28.4432L149.192 28.4411L149.188 30.7057L153.11 30.6896C153.212 31.3021 153.189 32.504 153.167 33.1519C152.368 33.1403 149.945 33.0597 149.267 33.172C149.162 33.2964 149.189 33.5058 149.192 33.6758V35.6515C150.653 35.676 152.156 35.6586 153.621 35.6585C153.662 36.4365 153.635 37.3669 153.631 38.1568C151.127 38.1236 148.604 38.1761 146.092 38.1418L146.098 25.9205Z" fill="black"/>
<path d="M67.1037 25.2891L69.7797 25.2747C71.2263 25.2716 72.7271 25.2775 73.815 26.3835C75.1692 27.7603 75.2478 30.4058 73.8468 31.7786C72.5504 33.0488 70.7919 32.9068 69.1339 32.8945L68.379 32.8919C68.2727 34.6121 68.3319 36.703 68.3454 38.4527L67.0889 38.4474C66.9957 35.1812 67.1149 31.864 67.0689 28.5916C67.0538 27.5095 67.0517 26.3689 67.1037 25.2891ZM68.335 31.6683C69.7615 31.673 71.7184 31.8978 72.8265 31.0384C73.7497 30.1838 73.7699 28.1297 72.943 27.2439C72.0197 26.2548 69.5956 26.498 68.336 26.5038C68.3418 27.6509 68.341 28.798 68.3337 29.9451C68.3337 30.3479 68.3663 31.3208 68.335 31.6683Z" fill="black"/>
<path d="M56.176 25.5776C56.5414 25.5623 56.9214 25.5644 57.2884 25.5615C57.6882 26.2659 58.259 28.3041 58.5897 29.1854C59.7279 32.2195 60.7477 35.4268 61.9234 38.4416L60.5395 38.4391C60.2779 37.8391 59.5609 35.7516 59.3907 35.1392L57.2083 35.1432C56.1366 35.1374 55.0649 35.1438 53.9934 35.1622C53.6306 36.2719 53.2834 37.3528 52.864 38.4431C52.4137 38.4643 51.9639 38.4478 51.5134 38.4367C51.9796 37.0271 55.7622 26.0574 56.176 25.5776ZM56.7935 34.0358L58.9233 34.017C58.6617 33.2478 56.951 27.9813 56.6503 27.8247C56.6462 27.8225 56.6419 27.8208 56.6377 27.8189C56.0633 29.6398 55.1215 32.2406 54.4172 34.0242C55.2093 34.0322 56.0014 34.036 56.7935 34.0358Z" fill="black"/>
<path d="M105.385 25.147C105.949 25.0727 107.197 25.304 107.727 25.5094C109.806 26.3159 110.563 27.6241 111.432 29.5077L110.049 29.5098C109.891 29.325 109.713 28.9556 109.591 28.7285C109.151 27.9084 108.479 27.1341 107.594 26.7831C105.093 25.7916 102.363 26.601 101.29 29.1981C100.172 31.9026 100.766 35.6321 103.602 36.9541C104.698 37.465 106.18 37.4704 107.29 37.0272C107.361 37.0055 107.431 36.98 107.498 36.9509C108.848 36.3802 109.418 35.4958 109.941 34.1985L111.361 34.2015C110.635 36.7152 108.595 38.3756 106.011 38.542C97.7187 39.0758 97.0691 25.6239 105.385 25.147Z" fill="black"/>
<path d="M79.2762 25.2934C81.8659 25.2106 84.7908 25.2878 87.4258 25.2726L87.4545 26.4644C86.4733 26.5162 84.966 26.4716 83.9489 26.4751C83.8872 29.2558 83.9396 32.2309 83.9396 35.0268C83.9474 36.1662 83.9446 37.3055 83.9317 38.4448C83.5254 38.4579 83.1069 38.4439 82.7 38.4356C82.6303 37.2089 82.6842 35.4569 82.6842 34.1987L82.7028 26.4659C81.5795 26.446 80.393 26.4664 79.264 26.4673L79.2762 25.2934Z" fill="black"/>
<path d="M92.6074 25.2907L93.824 25.2729C93.8771 26.0343 93.8448 27.1792 93.8448 27.9645L93.8456 32.8921L93.8477 36.387C93.8484 36.9813 93.8786 37.8939 93.8068 38.4456L92.5938 38.4476C92.5363 36.4506 92.5837 34.2807 92.5808 32.2621C92.5787 29.972 92.5406 27.5652 92.6074 25.2907Z" fill="black"/>
<path d="M17.7752 20H20.5305C22.9178 20.4504 24.1999 20.6707 26.2874 22.2328C28.8383 24.1233 30.5349 26.9558 31.0023 30.1045C31.4732 33.3369 30.6336 36.6239 28.6715 39.2298C24.783 44.4605 16.746 45.5538 11.7086 41.3281C3.4561 34.4054 6.86828 21.5664 17.7752 20ZM19.7427 39.8279C24.0837 39.501 27.3505 35.7213 27.0614 31.3599C26.7723 26.9985 23.0355 23.6867 18.6897 23.9404C14.292 24.1972 10.9458 28.0039 11.2383 32.4173C11.5309 36.8306 15.3499 40.1586 19.7427 39.8279Z" fill="#FBAB38"/>
</g>
<defs>
<clipPath id="clip0_670_30">
<rect width="147" height="24" fill="white" transform="translate(7 20)"/>
</clipPath>
</defs>
</svg>
